# This file uses centimeters as units for non-parametric coordinates.

mtllib Stage.mtl
g default
v -2.502420 0.000000 -0.693720
v -2.441182 0.000000 -0.307076
v -2.263463 0.000000 0.041723
v -1.986654 0.000000 0.318529
v -1.637855 0.000000 0.496250
v -1.251211 0.000000 0.582720
v -2.502420 0.282224 -0.693720
v -2.441182 0.282224 -0.307076
v -2.263463 0.282224 0.041723
v -1.986654 0.282224 0.318529
v -1.637855 0.282224 0.496250
v -1.251211 0.282224 0.582720
v -1.251209 0.282224 -0.693720
v 0.386644 0.000000 1.518152
v 0.735443 0.000000 1.378446
v 1.012251 0.000000 1.160849
v 1.189973 0.000000 0.886661
v 1.251213 0.000000 0.582720
v -1.189973 0.000000 0.886661
v -1.012251 0.000000 1.160849
v -0.735443 0.000000 1.378445
v -0.386644 0.000000 1.518150
v 0.000000 0.000000 1.566292
v 0.386644 0.282224 1.518152
v 0.735443 0.282224 1.378446
v 1.012251 0.282224 1.160849
v 1.189973 0.282224 0.886661
v 1.251213 0.282224 0.582720
v -1.189973 0.282224 0.886661
v -1.012251 0.282224 1.160849
v -0.735443 0.282224 1.378445
v -0.386644 0.282224 1.518150
v 0.000000 0.282224 1.566292
v 0.000002 0.282224 0.582720
v 1.637855 0.000000 0.496252
v 1.986654 0.000000 0.318533
v 2.263461 0.000000 0.041724
v 2.441184 0.000000 -0.307076
v 2.502422 0.000000 -0.693721
v 1.637855 0.282224 0.496252
v 1.986654 0.282224 0.318533
v 2.263461 0.282224 0.041724
v 2.441184 0.282224 -0.307076
v 2.502422 0.282224 -0.693721
v 1.251211 0.282224 -0.693719
v 0.000000 0.282224 -0.699515
v -2.502422 0.000000 -1.566288
v -2.502422 0.282224 -1.566288
v -1.251209 0.282224 -1.566292
v 2.502420 0.000000 -1.566287
v 2.502420 0.282224 -1.566287
v 1.251209 0.282224 -1.566291
v 0.000000 0.282224 -1.566284
vt 0.828235 0.222720
vt 0.828365 0.301289
vt 0.771711 0.301313
vt 0.771788 0.222751
vt 0.828353 0.379821
vt 0.771723 0.379827
vt 0.828324 0.458309
vt 0.771723 0.458299
vt 0.828296 0.536727
vt 0.771721 0.536738
vt 0.828326 0.616130
vt 0.771667 0.616125
vt -0.171703 0.889655
vt -0.171693 0.814373
vt 0.065438 0.735757
vt 0.081744 0.632308
vt 0.400014 0.735654
vt 0.129254 0.538971
vt 0.203295 0.464907
vt 0.296587 0.417356
vt 0.399995 0.394245
vt -0.228308 0.814357
vt -0.228311 0.889643
vt -0.171670 0.743809
vt -0.228337 0.743816
vt -0.171658 0.678315
vt -0.228360 0.678297
vt -0.171687 0.616125
vt -0.228346 0.616130
vt 0.828340 0.678297
vt 0.771639 0.678316
vt 0.828318 0.743817
vt 0.771650 0.743808
vt 0.828287 0.814358
vt 0.771672 0.814373
vt 0.828291 0.889644
vt 0.771683 0.889655
vt 0.828306 0.967744
vt -0.228326 0.967744
vt -0.171741 0.536738
vt -0.171744 0.458299
vt -0.228344 0.458309
vt -0.228317 0.536727
vt -0.171743 0.379828
vt -0.228373 0.379821
vt -0.171731 0.301312
vt -0.228385 0.301289
vt -0.368908 0.143829
vt -0.462217 0.181262
vt -0.265441 0.394227
vt -0.536208 0.239548
vt -0.583673 0.312935
vt -0.600007 0.394246
vt 0.416328 0.312935
vt 0.463794 0.239549
vt 0.537785 0.181265
vt 0.631093 0.143832
vt -0.265440 0.130930
vt -0.171809 0.222750
vt -0.228255 0.222719
vt 0.771595 0.047582
vt 0.828256 0.047537
vt -0.171615 0.047583
vt -0.228276 0.047537
vt -0.265441 0.969064
vt -0.599984 0.969070
vt -0.934419 0.968992
vt 0.065582 0.968992
vt 0.400016 0.969071
vt -0.265441 0.737163
vt -0.934560 0.735758
vt -0.918259 0.632309
vt -0.703415 0.417355
vt -0.796707 0.464904
vt -0.599990 0.735655
vt -0.870751 0.538969
vt 0.734562 0.737162
vt 0.734562 0.969063
vt 0.734562 0.394226
vt 0.734560 0.130929
vt -0.171715 0.967759
vt 0.771694 0.967759
vn -0.987688 0.000000 0.156434
vn -0.951057 0.000000 0.309016
vn -0.951057 0.000000 0.309016
vn -0.987688 0.000000 0.156434
vn -0.951057 0.000000 0.309016
vn -0.809017 0.000000 0.587786
vn -0.809017 0.000000 0.587786
vn -0.951057 0.000000 0.309016
vn -0.809017 0.000000 0.587786
vn -0.587783 0.000000 0.809019
vn -0.587783 0.000000 0.809019
vn -0.809017 0.000000 0.587786
vn -0.587783 0.000000 0.809019
vn -0.338075 0.000000 0.941119
vn -0.338075 0.000000 0.941119
vn -0.587783 0.000000 0.809019
vn -0.338075 0.000000 0.941119
vn -0.218251 0.000000 0.975893
vn -0.218251 0.000000 0.975893
vn -0.338075 0.000000 0.941119
vn 0.000000 1.000000 0.000000
vn 0.000000 1.000000 0.000000
vn 0.000000 1.000000 0.000000
vn 0.000000 1.000000 0.000000
vn 0.000000 1.000000 0.000000
vn 0.000000 1.000000 0.000000
vn 0.000000 1.000000 0.000000
vn 0.000000 1.000000 0.000000
vn 0.000000 1.000000 0.000000
vn 0.000000 1.000000 0.000000
vn 0.000000 1.000000 0.000000
vn 0.000000 1.000000 0.000000
vn 0.000000 1.000000 0.000000
vn 0.000000 1.000000 0.000000
vn 0.000000 1.000000 0.000000
vn 0.247472 0.000000 0.968895
vn 0.495944 0.000000 0.868355
vn 0.495944 0.000000 0.868355
vn 0.247472 0.000000 0.968895
vn 0.495944 0.000000 0.868355
vn 0.734377 0.000000 0.678742
vn 0.734377 0.000000 0.678742
vn 0.495944 0.000000 0.868355
vn 0.734377 0.000000 0.678742
vn 0.924167 0.000000 0.381990
vn 0.924167 0.000000 0.381990
vn 0.734377 0.000000 0.678742
vn 0.924167 0.000000 0.381990
vn 0.657083 0.000000 0.753818
vn 0.657083 0.000000 0.753818
vn 0.924167 0.000000 0.381990
vn -0.980300 0.000000 0.197513
vn -0.924167 0.000000 0.381990
vn -0.924167 0.000000 0.381990
vn -0.980300 0.000000 0.197513
vn -0.924167 0.000000 0.381990
vn -0.734376 0.000000 0.678743
vn -0.734376 0.000000 0.678743
vn -0.924167 0.000000 0.381990
vn -0.734376 0.000000 0.678743
vn -0.495944 0.000000 0.868355
vn -0.495944 0.000000 0.868355
vn -0.734376 0.000000 0.678743
vn -0.495944 0.000000 0.868355
vn -0.247473 0.000000 0.968895
vn -0.247473 0.000000 0.968895
vn -0.495944 0.000000 0.868355
vn -0.247473 0.000000 0.968895
vn -0.000001 0.000000 1.000000
vn -0.000001 0.000000 1.000000
vn -0.247473 0.000000 0.968895
vn -0.000001 0.000000 1.000000
vn 0.247472 0.000000 0.968895
vn 0.247472 0.000000 0.968895
vn -0.000001 0.000000 1.000000
vn 0.000000 1.000000 0.000000
vn 0.000000 1.000000 0.000000
vn 0.000000 1.000000 0.000000
vn 0.000000 1.000000 0.000000
vn 0.000000 1.000000 0.000000
vn 0.000000 1.000000 0.000000
vn 0.000000 1.000000 0.000000
vn 0.000000 1.000000 0.000000
vn 0.000000 1.000000 0.000000
vn 0.000000 1.000000 0.000000
vn 0.000000 1.000000 0.000000
vn 0.000000 1.000000 0.000000
vn 0.000000 1.000000 0.000000
vn 0.000000 1.000000 0.000000
vn 0.000000 1.000000 0.000000
vn 0.000000 1.000000 0.000000
vn 0.000000 1.000000 0.000000
vn 0.000000 1.000000 0.000000
vn 0.000000 1.000000 0.000000
vn 0.000000 1.000000 0.000000
vn 0.000000 1.000000 0.000000
vn 0.000000 1.000000 0.000000
vn 0.000000 1.000000 0.000000
vn 0.000000 1.000000 0.000000
vn 0.000000 1.000000 0.000000
vn 0.000000 1.000000 0.000000
vn 0.000000 1.000000 0.000000
vn 0.000000 1.000000 0.000000
vn 0.000000 1.000000 0.000000
vn 0.000000 1.000000 0.000000
vn 0.338073 0.000000 0.941120
vn 0.587785 0.000000 0.809017
vn 0.587785 0.000000 0.809017
vn 0.338073 0.000000 0.941120
vn 0.587785 0.000000 0.809017
vn 0.809016 0.000000 0.587786
vn 0.809016 0.000000 0.587786
vn 0.587785 0.000000 0.809017
vn 0.809016 0.000000 0.587786
vn 0.951057 0.000000 0.309016
vn 0.951057 0.000000 0.309016
vn 0.809016 0.000000 0.587786
vn 0.951057 0.000000 0.309016
vn 0.987689 0.000000 0.156432
vn 0.987689 0.000000 0.156432
vn 0.951057 0.000000 0.309016
vn 0.657083 0.000000 0.753818
vn 0.338073 0.000000 0.941120
vn 0.338073 0.000000 0.941120
vn 0.657083 0.000000 0.753818
vn 0.000000 1.000000 0.000000
vn 0.000000 1.000000 0.000000
vn 0.000000 1.000000 0.000000
vn 0.000000 1.000000 0.000000
vn 0.000000 1.000000 0.000000
vn 0.000000 1.000000 0.000000
vn 0.000000 1.000000 0.000000
vn 0.000000 1.000000 0.000000
vn 0.000000 1.000000 0.000000
vn 0.000000 1.000000 0.000000
vn 0.000000 1.000000 0.000001
vn 0.000000 1.000000 0.000000
vn 0.000000 1.000000 0.000000
vn 0.000000 1.000000 0.000000
vn 0.000000 1.000000 0.000000
vn 0.000000 1.000000 0.000000
vn 0.000000 1.000000 0.000000
vn 0.000000 1.000000 0.000000
vn 0.000000 1.000000 0.000000
vn 0.000000 1.000000 0.000000
vn 0.000000 1.000000 0.000000
vn 0.000000 1.000000 0.000000
vn 0.000000 1.000000 0.000000
vn -1.000000 0.000000 0.000000
vn -1.000000 0.000000 0.000000
vn -1.000000 0.000000 0.000000
vn -1.000000 0.000000 0.000000
vn 0.000000 1.000000 0.000000
vn 0.000000 1.000000 0.000000
vn 0.000000 1.000000 0.000000
vn 0.000000 1.000000 0.000000
vn 1.000000 0.000000 -0.000000
vn 1.000000 0.000000 -0.000000
vn 1.000000 0.000000 -0.000000
vn 1.000000 0.000000 -0.000000
vn 0.000000 1.000000 0.000000
vn 0.000000 1.000000 0.000000
vn 0.000000 1.000000 0.000000
vn 0.000000 1.000000 0.000000
vn 0.000000 1.000000 0.000000
vn 0.000000 1.000000 0.000000
vn 0.000000 1.000000 0.000000
vn 0.000000 1.000000 0.000000
vn 0.000000 1.000000 0.000000
vn 0.000000 1.000000 0.000000
vn 0.000000 1.000000 0.000000
vn 0.000000 1.000000 0.000000
s off
g polySurface26 room_4:room3:room:polySurface21
usemtl room_4:room3:room:Stairs:initialShadingGroup
f 1/1/1 2/2/2 8/3/3 7/4/4
f 2/2/5 3/5/6 9/6/7 8/3/8
f 3/5/9 4/7/10 10/8/11 9/6/12
f 4/7/13 5/9/14 11/10/15 10/8/16
f 5/9/17 6/11/18 12/12/19 11/10/20
f 7/15/21 8/16/22 13/17/23
f 8/16/24 9/18/25 13/17/26
f 9/18/27 10/19/28 13/17/29
f 10/19/30 11/20/31 13/17/32
f 11/20/33 12/21/34 13/17/35
f 14/13/36 15/14/37 25/22/38 24/23/39
f 15/14/40 16/24/41 26/25/42 25/22/43
f 16/24/44 17/26/45 27/27/46 26/25/47
f 17/26/48 18/28/49 28/29/50 27/27/51
f 6/11/52 19/30/53 29/31/54 12/12/55
f 19/30/56 20/32/57 30/33/58 29/31/59
f 20/32/60 21/34/61 31/35/62 30/33/63
f 21/34/64 22/36/65 32/37/66 31/35/67
f 22/36/68 23/38/69 33/82/70 32/37/71
f 23/81/72 14/13/73 24/23/74 33/39/75
f 24/48/76 25/49/77 34/50/78
f 25/49/79 26/51/80 34/50/81
f 26/51/82 27/52/83 34/50/84
f 27/52/85 28/53/86 34/50/87
f 12/21/88 29/54/89 34/79/90
f 29/54/91 30/55/92 34/79/93
f 30/55/94 31/56/95 34/79/96
f 31/56/97 32/57/98 34/79/99
f 32/57/100 33/80/101 34/79/102
f 33/58/103 24/48/104 34/50/105
f 35/40/106 36/41/107 41/42/108 40/43/109
f 36/41/110 37/44/111 42/45/112 41/42/113
f 37/44/114 38/46/115 43/47/116 42/45/117
f 38/46/118 39/59/119 44/60/120 43/47/121
f 18/28/122 35/40/123 40/43/124 28/29/125
f 40/73/126 41/74/127 45/75/128
f 41/74/129 42/76/130 45/75/131
f 42/76/132 43/72/133 45/75/134
f 43/72/135 44/71/136 45/75/137
f 28/53/138 40/73/139 45/75/140
f 13/17/141 12/21/142 34/79/143 46/77/144
f 46/70/145 34/50/146 28/53/147 45/75/148
f 1/1/149 7/4/150 48/61/151 47/62/152
f 7/15/153 13/17/154 49/69/155 48/68/156
f 44/60/157 39/59/158 50/63/159 51/64/160
f 45/75/161 44/71/162 51/67/163 52/66/164
f 13/17/165 46/77/166 53/78/167 49/69/168
f 46/70/169 45/75/170 52/66/171 53/65/172
