# This file uses centimeters as units for non-parametric coordinates.

mtllib Archeways.mtl
g Whole_scene:default1
v 0.829590 3.002735 -0.127601
v -0.829590 3.002735 -0.127601
v 0.829590 3.002735 0.110858
v -0.829590 3.002735 0.110858
v 0.829590 3.084290 0.110858
v -0.829590 3.084290 0.110858
v 0.829590 3.084290 -0.057349
v -0.829590 3.084290 -0.057349
v 0.829590 3.399606 0.110858
v -0.829590 3.399606 0.110858
v 0.829590 3.399606 -0.127601
v -0.829590 3.399606 -0.127601
v -0.000000 3.399606 0.110858
v -0.000000 3.084290 -0.057349
v -0.000000 3.084290 0.110858
v -0.000000 3.002735 0.110858
v -0.000000 3.002735 -0.127601
v -0.000000 2.765202 -0.127601
v -0.000000 2.642830 -0.127601
v -0.000000 2.308501 -0.127601
v 0.829590 3.318051 -0.057349
v -0.000000 3.318051 -0.057349
v 0.829590 3.318051 0.110858
v -0.000000 3.318051 0.110858
v -0.829590 3.318051 -0.057349
v -0.829590 3.318051 0.110858
v -0.829590 2.765202 -0.127601
v -0.372887 2.642830 -0.127601
v -0.038560 2.308501 -0.127601
v 0.829590 2.765202 -0.127601
v 0.372887 2.642830 -0.127601
v 0.038560 2.308501 -0.127601
v -0.372887 3.318051 -0.057349
v -0.372887 3.084290 -0.057349
v -0.372887 3.084290 0.110858
v -0.372887 3.002735 0.110858
v -0.372887 3.002735 -0.127601
v -0.372887 2.765202 -0.127601
v -0.372887 3.399606 -0.127601
v -0.372887 3.399606 0.110858
v -0.372887 3.318051 0.110858
v 0.372887 3.399606 -0.127601
v 0.372887 3.399606 0.110858
v 0.372887 3.318051 0.110858
v 0.372887 3.318051 -0.057349
v 0.372887 3.084290 -0.057349
v 0.372887 3.084290 0.110858
v 0.372887 3.002735 0.110858
v 0.372887 2.765202 -0.127601
v 0.372887 3.002735 -0.127601
v -0.298747 3.399606 -0.127601
v -0.298747 3.399606 0.110858
v 0.298747 3.399606 -0.127601
v 0.298747 3.399606 0.110858
v -0.000000 3.462585 0.110858
v -0.298747 3.462585 0.110858
v -0.298747 3.462586 -0.127601
v 0.298747 3.462585 0.110858
v 0.298747 3.462585 -0.127601
v -0.000000 3.462585 0.064102
v -0.240171 3.462585 0.064102
v -0.240171 3.462585 -0.127601
v 0.240171 3.462585 0.064102
v 0.240171 3.462585 -0.127601
v -0.000000 3.514315 0.018667
v -0.240171 3.514315 0.018667
v -0.240171 3.514315 -0.127601
v 0.240171 3.514315 0.018667
v 0.240171 3.514315 -0.127601
v -0.000000 3.584924 -0.021872
v -0.240171 3.584924 -0.021872
v -0.240171 3.584924 -0.127601
v 0.240171 3.584924 -0.021872
v 0.240171 3.584924 -0.127601
v -0.000000 3.674477 -0.039984
v -0.240171 3.674477 -0.039984
v -0.240171 3.674477 -0.127601
v 0.240171 3.674477 -0.039984
v 0.240171 3.674477 -0.127601
v -0.000000 3.894917 -0.025416
v -0.240171 3.894917 -0.025416
v -0.240171 3.894917 -0.127601
v 0.240171 3.894917 -0.025416
v 0.240171 3.894917 -0.127601
v -0.083812 1.851801 -0.127601
v -0.183726 2.224689 -0.127601
v -0.456701 2.497662 -0.127601
v -0.083812 1.851801 0.127602
v -0.183726 2.224689 0.127602
v -0.456701 2.497662 0.127602
v -0.829590 2.597578 0.127602
v 0.083812 1.851801 0.127602
v -0.038560 2.262876 -0.030245
v -0.372887 2.597204 -0.030245
v -0.829590 2.719577 -0.030245
v 0.083812 1.851801 -0.127601
v -0.083812 0.000000 0.127602
v 0.083812 0.000000 0.127602
v 0.083812 0.000000 -0.127601
v 0.456699 2.497662 -0.127601
v 0.183728 2.224689 -0.127601
v 0.829590 2.597578 0.127602
v 0.456699 2.497662 0.127602
v 0.183728 2.224689 0.127602
v 0.829590 2.719577 -0.030245
v 0.372887 2.597204 -0.030245
v 0.038560 2.262876 -0.030245
v -0.000000 0.000000 0.127602
v -0.000000 1.851801 0.127602
v -0.000000 2.262876 -0.030245
v -0.083812 0.000000 -0.127601
v 0.240171 4.050894 -0.127601
v 0.240171 4.050891 0.026437
v -0.000000 4.050891 0.026437
v -0.240171 4.050891 0.026437
v -0.240171 4.050894 -0.127601
v -0.829590 2.597578 -0.127601
v 0.829590 2.597578 -0.127601
vt 0.501526 0.211012
vt 0.501526 0.282804
vt 0.364027 0.282804
vt 0.364027 0.211012
vt 0.501526 0.307357
vt 0.364027 0.307357
vt 0.501526 0.357999
vt 0.364027 0.357999
vt 0.501526 0.428377
vt 0.364027 0.428377
vt 0.501526 0.479019
vt 0.364027 0.479019
vt 0.501526 0.503572
vt 0.364027 0.503572
vt 0.002000 0.428377
vt 0.139499 0.428377
vt 0.139499 0.479019
vt 0.002000 0.479019
vt 0.501526 0.575365
vt 0.364027 0.575365
vt 0.251763 0.479019
vt 0.251763 0.503572
vt 0.161820 0.503572
vt 0.251763 0.357999
vt 0.251763 0.428377
vt 0.139499 0.357999
vt 0.251763 0.307357
vt 0.139499 0.307357
vt 0.251763 0.282804
vt 0.139499 0.282804
vt 0.002000 0.211012
vt 0.139499 0.211012
vt 0.002000 0.282804
vt 0.251763 0.139498
vt 0.251763 0.211012
vt 0.139499 0.139498
vt 0.251763 0.102656
vt 0.139499 0.102656
vt 0.240154 0.002000
vt 0.251763 0.002000
vt 0.364027 0.139498
vt 0.364027 0.102656
vt 0.263372 0.002000
vt 0.002000 0.357999
vt 0.002000 0.307357
vt 0.002000 0.139498
vt 0.002000 0.503572
vt 0.139499 0.503572
vt 0.139499 0.575365
vt 0.002000 0.575365
vt 0.341706 0.503572
vt 0.341706 0.575365
vt 0.501526 0.139498
vt 0.161820 0.575365
vt 0.115160 0.625685
vt 0.251763 0.625685
vt 0.251763 0.654482
vt 0.115160 0.654482
vt 0.006124 0.625685
vt 0.006124 0.654483
vt 0.388366 0.625684
vt 0.388366 0.654482
vt 0.497402 0.625684
vt 0.497402 0.654481
vt 0.251763 0.675861
vt 0.141944 0.675861
vt 0.093781 0.681266
vt 0.006124 0.681267
vt 0.361582 0.675861
vt 0.497402 0.681265
vt 0.409745 0.681265
vt 0.147941 0.692180
vt 0.251763 0.692180
vt 0.251763 0.721943
vt 0.147941 0.721943
vt 0.047095 0.693181
vt 0.134752 0.693181
vt 0.113977 0.716835
vt 0.047095 0.716835
vt 0.355585 0.692180
vt 0.355585 0.721943
vt 0.371885 0.693181
vt 0.459542 0.693181
vt 0.459542 0.716835
vt 0.392661 0.716835
vt 0.251763 0.757139
vt 0.147941 0.757139
vt 0.095440 0.749121
vt 0.047095 0.749121
vt 0.355585 0.757139
vt 0.459542 0.749121
vt 0.411197 0.749121
vt 0.251763 0.796635
vt 0.147941 0.796635
vt 0.087159 0.790069
vt 0.047095 0.790069
vt 0.355585 0.796635
vt 0.459542 0.790069
vt 0.419479 0.790069
vt 0.251763 0.892135
vt 0.147941 0.892135
vt 0.047095 0.890866
vt 0.093820 0.890866
vt 0.355585 0.892135
vt 0.459542 0.890866
vt 0.412818 0.890866
vt 0.251763 0.963189
vt 0.147941 0.963189
vt 0.047095 0.962187
vt 0.117530 0.962186
vt 0.355585 0.963189
vt 0.459542 0.962187
vt 0.389108 0.962186
vt 0.507383 0.675742
vt 0.507383 0.559518
vt 0.584216 0.559518
vt 0.584216 0.675742
vt 0.507383 0.791968
vt 0.584216 0.791968
vt 0.894235 0.811040
vt 0.819393 0.699863
vt 0.746393 0.717883
vt 0.837283 0.851710
vt 0.995908 0.897422
vt 0.960488 0.956278
vt 0.723371 0.747077
vt 0.815492 0.881544
vt 0.939669 0.986868
vt 0.507383 0.002000
vt 0.584217 0.002000
vt 0.609450 0.559518
vt 0.609450 0.002000
vt 0.711516 0.559518
vt 0.634683 0.559518
vt 0.634683 0.002000
vt 0.711516 0.002000
vt 0.634682 0.908193
vt 0.634683 0.791967
vt 0.711516 0.791967
vt 0.711516 0.908193
vt 0.711516 0.675743
vt 0.634683 0.675743
vt 0.894235 0.464136
vt 0.995908 0.550519
vt 0.960488 0.609376
vt 0.837283 0.504807
vt 0.819394 0.352960
vt 0.746393 0.370980
vt 0.939668 0.639965
vt 0.815492 0.534641
vt 0.723371 0.400174
vt 0.787022 0.224169
vt 0.609449 0.692090
vt 0.609449 0.724459
vt 0.597840 0.724459
vt 0.597840 0.692090
vt 0.787023 0.571072
vt 0.621059 0.692090
vt 0.621059 0.724459
vt 0.584216 0.908193
vt 0.507383 0.908193
vn 0.000000 -1.000000 0.000000
vn 0.000000 -1.000000 0.000000
vn 0.000000 -1.000000 0.000000
vn 0.000000 -1.000000 0.000000
vn -0.000000 0.000000 1.000000
vn -0.000000 0.000000 1.000000
vn -0.000000 0.000000 1.000000
vn -0.000000 0.000000 1.000000
vn 0.000000 1.000000 0.000000
vn 0.000000 1.000000 0.000000
vn 0.000000 1.000000 0.000000
vn 0.000000 1.000000 0.000000
vn -0.000000 0.000000 1.000000
vn -0.000000 0.000000 1.000000
vn -0.000000 0.000000 1.000000
vn -0.000000 0.000000 1.000000
vn 0.000000 -1.000000 0.000000
vn 0.000000 -1.000000 0.000000
vn 0.000000 -1.000000 0.000000
vn 0.000000 -1.000000 0.000000
vn -0.000000 0.000000 1.000000
vn -0.000000 0.000000 1.000000
vn -0.000000 0.000000 1.000000
vn -0.000000 0.000000 1.000000
vn 0.000000 -1.000000 0.000000
vn 0.000000 -1.000000 0.000000
vn 0.000000 -1.000000 0.000000
vn 0.000000 -1.000000 0.000000
vn 0.000000 1.000000 0.000000
vn 0.000000 1.000000 0.000000
vn 0.000000 1.000000 0.000000
vn 0.000000 1.000000 0.000000
vn -0.000000 0.000000 1.000000
vn -0.000000 0.000000 1.000000
vn -0.000000 0.000000 1.000000
vn -0.000000 0.000000 1.000000
vn -0.000000 0.000000 1.000000
vn -0.000000 0.000000 1.000000
vn -0.000000 0.000000 1.000000
vn 0.000000 1.000000 0.000000
vn 0.000000 1.000000 0.000000
vn 0.000000 1.000000 0.000000
vn 0.000000 1.000000 0.000000
vn -0.000000 0.000000 1.000000
vn -0.000000 0.000000 1.000000
vn -0.000000 0.000000 1.000000
vn -0.000000 0.000000 1.000000
vn 0.000000 -1.000000 0.000000
vn 0.000000 -1.000000 0.000000
vn 0.000000 -1.000000 0.000000
vn 0.000000 -1.000000 0.000000
vn -0.000000 0.000000 1.000000
vn -0.000000 0.000000 1.000000
vn -0.000000 0.000000 1.000000
vn -0.000000 0.000000 1.000000
vn -0.000000 0.000000 1.000000
vn -0.000000 0.000000 1.000000
vn -0.000000 0.000000 1.000000
vn -0.000000 0.000000 1.000000
vn -0.000000 0.000003 1.000000
vn -0.000000 0.000003 1.000000
vn -0.000000 0.000003 1.000000
vn -0.000000 0.000003 1.000000
vn -0.000000 0.000000 1.000000
vn -0.000000 0.000000 1.000000
vn -0.000000 0.000000 1.000000
vn -0.000000 0.000000 1.000000
vn -0.000000 0.000000 1.000000
vn -0.000000 0.000000 1.000000
vn -0.000000 0.000000 1.000000
vn -0.000000 0.000000 1.000000
vn -0.000000 0.000002 1.000000
vn -0.000000 0.000002 1.000000
vn -0.000000 0.000003 1.000000
vn -0.000000 0.000003 1.000000
vn -0.000000 0.000000 1.000000
vn -0.000000 0.000000 1.000000
vn -0.000000 0.000000 1.000000
vn -0.000000 0.000000 1.000000
vn 0.000000 1.000000 0.000000
vn 0.000000 1.000000 0.000000
vn 0.000000 1.000000 0.000000
vn 0.000000 1.000000 0.000000
vn -0.000000 0.000000 1.000000
vn -0.000000 0.000000 1.000000
vn -0.000000 0.000000 1.000000
vn -0.000000 0.000000 1.000000
vn -0.000000 0.000000 1.000000
vn -0.000000 0.000000 1.000000
vn -0.000000 0.000000 1.000000
vn -0.000000 0.000000 1.000000
vn 0.000000 1.000000 0.000000
vn 0.000000 1.000000 0.000000
vn 0.000000 1.000000 0.000000
vn 0.000000 1.000000 0.000000
vn -0.000000 0.000000 1.000000
vn -0.000000 0.000000 1.000000
vn -0.000000 0.000000 1.000000
vn -0.000000 0.000000 1.000000
vn 0.000000 1.000000 0.000000
vn 0.000000 1.000000 0.000000
vn 0.000000 1.000000 0.000000
vn 0.000000 1.000000 0.000000
vn -0.000000 0.000000 1.000000
vn -0.000000 0.000000 1.000000
vn -0.000000 0.000000 1.000000
vn -0.000000 0.000000 1.000000
vn 0.000000 -1.000000 0.000000
vn 0.000000 -1.000000 0.000000
vn 0.000000 -1.000000 0.000000
vn 0.000000 -1.000000 0.000000
vn -0.000000 0.000000 1.000000
vn -0.000000 0.000000 1.000000
vn -0.000000 0.000000 1.000000
vn -0.000000 0.000000 1.000000
vn 0.000000 1.000000 0.000000
vn 0.000000 1.000000 0.000000
vn 0.000000 1.000000 0.000000
vn 0.000000 1.000000 0.000000
vn -0.000000 0.000000 1.000000
vn -0.000000 0.000000 1.000000
vn -0.000000 0.000000 1.000000
vn -0.000000 0.000000 1.000000
vn -0.000000 0.000000 1.000000
vn -0.000000 0.000000 1.000000
vn -0.000000 0.000000 1.000000
vn -0.000000 0.000000 1.000000
vn -0.000000 0.000000 1.000000
vn -0.000000 0.000000 1.000000
vn -0.000000 0.000000 1.000000
vn 0.000000 -1.000000 0.000000
vn 0.000000 -1.000000 0.000000
vn 0.000000 -1.000000 0.000000
vn 0.000000 -1.000000 0.000000
vn 0.000000 -1.000000 0.000000
vn 0.000000 -1.000000 0.000000
vn 0.000000 -1.000000 0.000000
vn 0.000000 -1.000000 0.000000
vn -0.000000 0.000000 1.000000
vn -0.000000 0.000000 1.000000
vn -0.000000 0.000000 1.000000
vn 0.000000 -1.000000 0.000000
vn 0.000000 -1.000000 0.000000
vn 0.000000 -1.000000 0.000000
vn 0.000000 -1.000000 0.000000
vn 0.000000 1.000000 0.000000
vn 0.000000 1.000000 0.000000
vn 0.000000 1.000000 0.000000
vn 0.000000 1.000000 0.000000
vn -0.000000 0.000000 1.000000
vn -0.000000 0.000000 1.000000
vn -0.000000 0.000000 1.000000
vn -0.000000 0.000000 1.000000
vn -0.000000 0.000000 1.000000
vn -0.000000 0.000000 1.000000
vn -0.000000 0.000000 1.000000
vn -0.000000 0.000000 1.000000
vn -0.000000 0.000000 1.000000
vn -0.000000 0.000000 1.000000
vn -0.000000 0.000000 1.000000
vn -1.000000 0.000000 -0.000000
vn -1.000000 0.000000 -0.000000
vn -1.000000 0.000000 -0.000000
vn -1.000000 0.000000 -0.000000
vn -0.000000 0.000000 1.000000
vn -0.000000 0.000000 1.000000
vn -0.000000 0.000000 1.000000
vn -0.000000 0.000000 1.000000
vn 1.000000 0.000000 0.000000
vn 1.000000 0.000000 0.000000
vn 1.000000 0.000000 0.000000
vn 1.000000 0.000000 0.000000
vn 0.000000 1.000000 0.000000
vn 0.000000 1.000000 0.000000
vn 0.000000 1.000000 0.000000
vn 0.000000 1.000000 0.000000
vn 0.000018 1.000000 0.000004
vn 0.000018 1.000000 0.000004
vn 0.000018 1.000000 0.000004
vn 0.000018 1.000000 0.000004
vn 0.000000 1.000000 0.000000
vn 0.000000 1.000000 0.000000
vn 0.000000 1.000000 0.000000
vn 0.000000 1.000000 0.000000
vn -0.000002 1.000000 -0.000000
vn -0.000002 1.000000 -0.000000
vn -0.000002 1.000000 -0.000000
vn -0.000002 1.000000 -0.000000
vn -0.000000 0.659913 0.751342
vn -0.000000 0.659911 0.751343
vn -0.000000 0.574971 0.818174
vn -0.000000 0.574972 0.818173
vn -1.000000 0.000000 -0.000000
vn -1.000000 0.000000 -0.000000
vn -1.000000 0.000000 -0.000000
vn -1.000000 0.000000 -0.000000
vn -0.000000 0.659911 0.751343
vn -0.000000 0.659910 0.751345
vn -0.000000 0.574970 0.818174
vn -0.000000 0.574971 0.818174
vn 1.000000 0.000000 0.000000
vn 1.000000 0.000000 0.000000
vn 1.000000 0.000000 0.000000
vn 1.000000 0.000000 0.000000
vn -0.000000 0.574972 0.818173
vn -0.000000 0.574971 0.818174
vn -0.000000 0.343864 0.939019
vn -0.000000 0.343864 0.939019
vn -1.000000 0.000000 -0.000000
vn -1.000000 0.000000 -0.000000
vn -1.000000 0.000000 -0.000000
vn -1.000000 0.000000 -0.000000
vn -0.000000 0.574971 0.818174
vn -0.000000 0.574970 0.818174
vn -0.000000 0.343864 0.939019
vn -0.000000 0.343864 0.939019
vn 1.000000 0.000000 0.000000
vn 1.000000 0.000000 0.000000
vn 1.000000 0.000000 0.000000
vn 1.000000 0.000000 0.000000
vn -0.000000 0.343864 0.939019
vn -0.000000 0.343864 0.939019
vn -0.000000 0.011433 0.999935
vn -0.000000 0.011433 0.999935
vn -1.000000 0.000000 -0.000000
vn -1.000000 0.000000 -0.000000
vn -1.000000 0.000000 -0.000000
vn -1.000000 0.000000 -0.000000
vn -0.000000 0.343864 0.939019
vn -0.000000 0.343864 0.939019
vn -0.000000 0.011433 0.999935
vn -0.000000 0.011433 0.999935
vn 1.000000 0.000000 0.000000
vn 1.000000 0.000000 0.000000
vn 1.000000 0.000000 0.000000
vn 1.000000 0.000000 0.000000
vn -0.000000 0.011433 0.999935
vn -0.000000 0.011433 0.999935
vn -0.000000 -0.173771 0.984786
vn -0.000000 -0.173771 0.984786
vn -1.000000 0.000000 0.000001
vn -1.000000 0.000000 -0.000000
vn -1.000000 0.000000 -0.000000
vn -1.000000 0.000000 0.000001
vn -0.000000 0.011433 0.999935
vn -0.000000 0.011433 0.999935
vn -0.000000 -0.173772 0.984786
vn -0.000000 -0.173771 0.984786
vn 1.000000 0.000000 0.000000
vn 1.000000 0.000000 0.000000
vn 1.000000 0.000000 0.000000
vn 1.000000 0.000000 0.000000
vn -0.000000 -0.173771 0.984786
vn -0.000000 -0.173771 0.984786
vn -0.000000 -0.315468 0.948936
vn -0.000000 -0.315466 0.948937
vn -1.000000 0.000000 0.000001
vn -1.000000 0.000000 0.000001
vn -1.000000 0.000000 0.000001
vn -1.000000 0.000000 0.000001
vn -0.000000 -0.173771 0.984786
vn -0.000000 -0.173772 0.984786
vn -0.000000 -0.315470 0.948936
vn -0.000000 -0.315468 0.948936
vn 1.000000 0.000000 0.000000
vn 1.000000 0.000000 0.000000
vn 1.000000 0.000000 0.000000
vn 1.000000 0.000000 0.000000
vn -0.965926 -0.258817 -0.000000
vn -0.965926 -0.258817 -0.000000
vn -0.965926 -0.258817 -0.000000
vn -0.965926 -0.258817 -0.000000
vn -0.707105 -0.707109 -0.000000
vn -0.707105 -0.707109 -0.000000
vn -0.707105 -0.707109 -0.000000
vn -0.707105 -0.707109 -0.000000
vn 0.377278 0.679739 0.628981
vn 0.598987 0.452843 0.660416
vn 0.531807 0.528678 0.661574
vn 0.442514 0.721769 0.532194
vn 0.207397 0.774016 0.598235
vn 0.377278 0.679739 0.628981
vn 0.442514 0.721769 0.532194
vn 0.220445 0.822713 0.523972
vn 0.442514 0.721769 0.532194
vn 0.531807 0.528678 0.661574
vn 0.636723 0.698222 0.327216
vn 0.431426 0.816891 0.382832
vn 0.220445 0.822713 0.523972
vn 0.442514 0.721769 0.532194
vn 0.431426 0.816891 0.382832
vn 0.235785 0.879965 0.412393
vn -1.000000 0.000000 -0.000000
vn -1.000000 0.000000 -0.000000
vn -1.000000 0.000000 -0.000000
vn -1.000000 0.000000 -0.000000
vn -0.000000 0.053474 0.998569
vn 0.051052 0.061498 0.996801
vn -0.000000 0.000000 1.000000
vn -0.000000 0.000000 1.000000
vn 1.000000 0.000000 0.000000
vn 1.000000 0.000000 0.000000
vn 1.000000 0.000000 0.000000
vn 1.000000 0.000000 0.000000
vn 0.000000 0.000000 0.000000
vn 0.258817 -0.965926 0.000000
vn 0.258817 -0.965926 0.000000
vn 0.258817 -0.965926 0.000000
vn 0.707110 -0.707104 0.000000
vn 0.707110 -0.707104 0.000000
vn 0.707110 -0.707104 0.000000
vn 0.707110 -0.707104 0.000000
vn 0.965925 -0.258821 0.000000
vn 0.965925 -0.258821 0.000000
vn 0.965925 -0.258821 0.000000
vn 0.965925 -0.258821 0.000000
vn -0.377278 0.679738 0.628982
vn -0.207396 0.774019 0.598233
vn -0.220444 0.822714 0.523971
vn -0.442513 0.721768 0.532196
vn -0.598982 0.452837 0.660424
vn -0.377278 0.679738 0.628982
vn -0.442513 0.721768 0.532196
vn -0.531804 0.528673 0.661581
vn -0.442513 0.721768 0.532196
vn -0.220444 0.822714 0.523971
vn -0.235785 0.879965 0.412393
vn -0.431425 0.816890 0.382836
vn -0.531804 0.528673 0.661581
vn -0.442513 0.721768 0.532196
vn -0.431425 0.816890 0.382836
vn -0.636720 0.698220 0.327225
vn -0.531804 0.528673 0.661581
vn -0.051052 0.061497 0.996801
vn -0.598982 0.452837 0.660424
vn -0.000000 0.446052 0.895007
vn -0.000000 0.905500 0.424347
vn 0.636723 0.698222 0.327216
vn 0.531807 0.528678 0.661574
vn 0.051052 0.061498 0.996801
vn 0.531807 0.528678 0.661574
vn 0.598987 0.452843 0.660416
vn 0.051052 0.061498 0.996801
vn -0.000000 0.053474 0.998569
vn -0.000000 0.446052 0.895007
vn 0.531807 0.528678 0.661574
vn -0.051052 0.061497 0.996801
vn -0.000000 0.053474 0.998569
vn -0.000000 0.000000 1.000000
vn -0.000000 0.000000 1.000000
vn -0.000000 0.446052 0.895007
vn -0.000000 0.053474 0.998569
vn -0.051052 0.061497 0.996801
vn -0.531804 0.528673 0.661581
vn -0.531804 0.528673 0.661581
vn -0.636720 0.698220 0.327225
vn -0.000000 0.905500 0.424347
vn -0.000000 0.446052 0.895007
vn -0.258819 -0.965926 -0.000000
vn -0.258819 -0.965926 -0.000000
vn -0.258819 -0.965926 -0.000000
vn -0.258819 -0.965926 -0.000000
s off
g Whole_scene:polySurface11 Whole_scene:polySurface333 polySurface153 Whole_scene:polySurface1
usemtl initialShadingGroup
f 1/1/1 3/2/2 48/3/3 50/4/4
f 48/3/5 3/2/6 5/5/7 47/6/8
f 47/6/9 5/5/10 7/7/11 46/8/12
f 46/8/13 7/7/14 21/9/15 45/10/16
f 45/10/17 21/9/18 23/11/19 44/12/20
f 44/12/21 23/11/22 9/13/23 43/14/24
f 25/15/25 33/16/26 41/17/27 26/18/28
f 43/14/29 9/13/30 11/19/31 42/20/32
f 24/21/33 13/22/34 52/23/35
f 14/24/36 22/25/37 33/16/38 34/26/39
f 15/27/40 14/24/41 34/26/42 35/28/43
f 16/29/44 15/27/45 35/28/46 36/30/47
f 2/31/48 37/32/49 36/30/50 4/33/51
f 18/34/52 17/35/53 37/32/54 38/36/55
f 19/37/56 18/34/57 38/36/58 28/38/59
f 29/39/60 20/40/61 19/37/62 28/38/63
f 18/34/64 49/41/65 50/4/66 17/35/67
f 19/37/68 31/42/69 49/41/70 18/34/71
f 32/43/72 31/42/73 19/37/74 20/40/75
f 8/44/76 34/26/77 33/16/78 25/15/79
f 6/45/80 35/28/81 34/26/82 8/44/83
f 4/33/84 36/30/85 35/28/86 6/45/87
f 27/46/88 38/36/89 37/32/90 2/31/91
f 10/47/92 40/48/93 39/49/94 12/50/95
f 26/18/96 41/17/97 40/48/98 10/47/99
f 54/51/100 43/14/101 42/20/102 53/52/103
f 24/21/104 44/12/105 43/14/106 54/51/107
f 45/10/108 44/12/109 24/21/110 22/25/111
f 46/8/112 45/10/113 22/25/114 14/24/115
f 47/6/116 46/8/117 14/24/118 15/27/119
f 48/3/120 47/6/121 15/27/122 16/29/123
f 30/53/124 49/41/125 31/42/126
f 1/1/127 50/4/128 49/41/129 30/53/130
f 17/35/131 16/29/132 36/30/133 37/32/134
f 50/4/135 48/3/136 16/29/137 17/35/138
f 27/46/139 28/38/140 38/36/141
f 22/25/142 24/21/143 41/17/144 33/16/145
f 40/48/146 52/23/147 51/54/148 39/49/149
f 41/17/150 24/21/151 52/23/152 40/48/153
f 24/21/154 54/51/155 13/22/156
f 52/55/157 13/56/158 55/57/159 56/58/160
f 51/59/161 52/55/162 56/58/163 57/60/164
f 13/56/165 54/61/166 58/62/167 55/57/168
f 54/61/169 53/63/170 59/64/171 58/62/172
f 56/58/173 55/57/174 60/65/175 61/66/176
f 57/60/177 56/58/178 61/67/179 62/68/180
f 55/57/181 58/62/182 63/69/183 60/65/184
f 58/62/185 59/64/186 64/70/187 63/71/188
f 61/72/189 60/73/190 65/74/191 66/75/192
f 62/76/193 61/77/194 66/78/195 67/79/196
f 60/73/197 63/80/198 68/81/199 65/74/200
f 63/82/201 64/83/202 69/84/203 68/85/204
f 66/75/205 65/74/206 70/86/207 71/87/208
f 67/79/209 66/78/210 71/88/211 72/89/212
f 65/74/213 68/81/214 73/90/215 70/86/216
f 68/85/217 69/84/218 74/91/219 73/92/220
f 71/87/221 70/86/222 75/93/223 76/94/224
f 72/89/225 71/88/226 76/95/227 77/96/228
f 70/86/229 73/90/230 78/97/231 75/93/232
f 73/92/233 74/91/234 79/98/235 78/99/236
f 76/94/237 75/93/238 80/100/239 81/101/240
f 82/102/241 77/96/242 76/95/243 81/103/244
f 75/93/245 78/97/246 83/104/247 80/100/248
f 78/99/249 79/98/250 84/105/251 83/106/252
f 81/101/253 80/100/254 114/107/255 115/108/256
f 116/109/257 82/102/258 81/103/259 115/110/260
f 80/100/261 83/104/262 113/111/263 114/107/264
f 83/106/265 84/105/266 112/112/267 113/113/268
f 86/114/269 85/115/270 88/116/271 89/117/272
f 87/118/273 86/114/274 89/117/275 90/119/276
f 90/120/277 89/121/278 93/122/279 94/123/280
f 91/124/281 90/120/282 94/123/283 95/125/284
f 94/123/285 93/122/286 29/126/287 28/127/288
f 95/125/289 94/123/290 28/127/291 27/128/292
f 88/116/293 85/115/294 111/129/295 97/130/296
f 109/131/297 88/116/298 97/130/299 108/132/300
f 96/133/301 92/134/302 98/135/303 99/136/304
f 102/137/305 103/138/306 100/139/307 118/140/308
f 101/141/309 100/139/310 103/138/311 104/142/312
f 96/133/313 101/141/314 104/142/315 92/134/316
f 103/143/317 102/144/318 105/145/319 106/146/320
f 104/147/321 103/143/322 106/146/323 107/148/324
f 106/146/325 105/145/326 30/149/327 31/150/328
f 107/148/329 106/146/330 31/150/331 32/151/332
f 107/148/333 92/152/334 104/147/335
f 110/153/336 20/154/337 29/155/338 93/156/339
f 88/157/340 93/122/341 89/121/342
f 88/116/343 109/131/344 110/153/345 93/156/346
f 92/134/347 109/131/348 108/132/349 98/135/350
f 110/153/351 109/131/352 92/134/353 107/158/354
f 107/158/355 32/159/356 20/154/357 110/153/358
f 91/160/359 117/161/360 87/118/361 90/119/362
